<svg xmlns="http://www.w3.org/2000/svg" viewBox="0 0 100 110" width="100" height="110">
  <g opacity="0.92">
    <ellipse cx="50" cy="15"  rx="5" ry="10.5" fill="#F5A623" transform="rotate(0 50 50)"/>
    <ellipse cx="50" cy="15"  rx="5" ry="10.5" fill="#F5A623" transform="rotate(45 50 50)"/>
    <ellipse cx="50" cy="15"  rx="5" ry="10.5" fill="#F5A623" transform="rotate(90 50 50)"/>
    <ellipse cx="50" cy="15"  rx="5" ry="10.5" fill="#F5A623" transform="rotate(135 50 50)"/>
    <ellipse cx="50" cy="15"  rx="5" ry="10.5" fill="#F5A623" transform="rotate(180 50 50)"/>
    <ellipse cx="50" cy="15"  rx="5" ry="10.5" fill="#F5A623" transform="rotate(225 50 50)"/>
    <ellipse cx="50" cy="15"  rx="5" ry="10.5" fill="#F5A623" transform="rotate(270 50 50)"/>
    <ellipse cx="50" cy="15"  rx="5" ry="10.5" fill="#F5A623" transform="rotate(315 50 50)"/>
  </g>
  <circle cx="50" cy="50" r="19" fill="#1A7A6E"/>
  <text x="40" y="57" font-family="Georgia, serif" font-size="22" font-weight="700" fill="#FAF7F2">B</text>
  <text x="22" y="95" font-family="Georgia, 'Times New Roman', serif" font-size="26" font-weight="700" fill="#2C1810" letter-spacing="-0.5">Be</text>
  <text x="57" y="95" font-family="Georgia, 'Times New Roman', serif" font-size="26" font-weight="700" fill="#F5A623" letter-spacing="-0.5">Joy</text>
</svg>
