<svg xmlns="http://www.w3.org/2000/svg" viewBox="0 0 32 32" width="32" height="32">
  <g opacity="0.9">
    <ellipse cx="16" cy="5"  rx="2" ry="4" fill="#F5A623" transform="rotate(0 16 16)"/>
    <ellipse cx="16" cy="5"  rx="2" ry="4" fill="#F5A623" transform="rotate(45 16 16)"/>
    <ellipse cx="16" cy="5"  rx="2" ry="4" fill="#F5A623" transform="rotate(90 16 16)"/>
    <ellipse cx="16" cy="5"  rx="2" ry="4" fill="#F5A623" transform="rotate(135 16 16)"/>
    <ellipse cx="16" cy="5"  rx="2" ry="4" fill="#F5A623" transform="rotate(180 16 16)"/>
    <ellipse cx="16" cy="5"  rx="2" ry="4" fill="#F5A623" transform="rotate(225 16 16)"/>
    <ellipse cx="16" cy="5"  rx="2" ry="4" fill="#F5A623" transform="rotate(270 16 16)"/>
    <ellipse cx="16" cy="5"  rx="2" ry="4" fill="#F5A623" transform="rotate(315 16 16)"/>
  </g>
  <circle cx="16" cy="16" r="7" fill="#1A7A6E"/>
  <text x="12" y="20" font-family="Georgia,serif" font-size="9" font-weight="700" fill="#FAF7F2">B</text>
</svg>
