<svg xmlns="http://www.w3.org/2000/svg" viewBox="0 0 60 60" width="60" height="60">
  <g opacity="0.92">
    <ellipse cx="30" cy="9"  rx="3.5" ry="7.5" fill="#F5A623" transform="rotate(0 30 30)"/>
    <ellipse cx="30" cy="9"  rx="3.5" ry="7.5" fill="#F5A623" transform="rotate(45 30 30)"/>
    <ellipse cx="30" cy="9"  rx="3.5" ry="7.5" fill="#F5A623" transform="rotate(90 30 30)"/>
    <ellipse cx="30" cy="9"  rx="3.5" ry="7.5" fill="#F5A623" transform="rotate(135 30 30)"/>
    <ellipse cx="30" cy="9"  rx="3.5" ry="7.5" fill="#F5A623" transform="rotate(180 30 30)"/>
    <ellipse cx="30" cy="9"  rx="3.5" ry="7.5" fill="#F5A623" transform="rotate(225 30 30)"/>
    <ellipse cx="30" cy="9"  rx="3.5" ry="7.5" fill="#F5A623" transform="rotate(270 30 30)"/>
    <ellipse cx="30" cy="9"  rx="3.5" ry="7.5" fill="#F5A623" transform="rotate(315 30 30)"/>
  </g>
  <circle cx="30" cy="30" r="13" fill="#1A7A6E"/>
  <text x="24" y="36" font-family="Georgia, serif" font-size="16" font-weight="700" fill="#FAF7F2">B</text>
</svg>
